<mxfile host="drawio-plugin" agent="Mozilla/5.0 (Windows NT 10.0; Win64; x64) AppleWebKit/537.36 (KHTML, like Gecko) Chrome/122.0.0.0 Safari/537.36" modified="2025-04-13T10:25:55.778Z" version="22.1.22" etag="0pIb6DfW1LRW9_jpjFRE" type="embed">
  <diagram name="Page-1" id="qHf4nwUgz4WXce0T-Xai">
    <mxGraphModel dx="1489" dy="825" grid="1" gridSize="10" guides="1" tooltips="1" connect="1" arrows="1" fold="1" page="1" pageScale="1" pageWidth="827" pageHeight="1169" math="0" shadow="0">
      <root>
        <mxCell id="0" />
        <mxCell id="1" parent="0" />
        <mxCell id="N_VocerRNXMUjOHOn4VM-407" value="User" style="swimlane;fontStyle=1;align=center;verticalAlign=top;childLayout=stackLayout;horizontal=1;startSize=28.923076923076923;horizontalStack=0;resizeParent=1;resizeParentMax=0;resizeLast=0;collapsible=0;marginBottom=0;" parent="1" vertex="1">
          <mxGeometry x="70" y="10" width="230" height="384.9230769230769" as="geometry" />
        </mxCell>
        <mxCell id="N_VocerRNXMUjOHOn4VM-408" value="- id: Long" style="text;strokeColor=none;fillColor=none;align=left;verticalAlign=top;spacingLeft=4;spacingRight=4;overflow=hidden;rotatable=0;points=[[0,0.5],[1,0.5]];portConstraint=eastwest;" parent="N_VocerRNXMUjOHOn4VM-407" vertex="1">
          <mxGeometry y="28.923076923076923" width="230" height="29" as="geometry" />
        </mxCell>
        <mxCell id="N_VocerRNXMUjOHOn4VM-409" value="- name: String" style="text;strokeColor=none;fillColor=none;align=left;verticalAlign=top;spacingLeft=4;spacingRight=4;overflow=hidden;rotatable=0;points=[[0,0.5],[1,0.5]];portConstraint=eastwest;" parent="N_VocerRNXMUjOHOn4VM-407" vertex="1">
          <mxGeometry y="57.92307692307692" width="230" height="29" as="geometry" />
        </mxCell>
        <mxCell id="N_VocerRNXMUjOHOn4VM-410" value="- email: String" style="text;strokeColor=none;fillColor=none;align=left;verticalAlign=top;spacingLeft=4;spacingRight=4;overflow=hidden;rotatable=0;points=[[0,0.5],[1,0.5]];portConstraint=eastwest;" parent="N_VocerRNXMUjOHOn4VM-407" vertex="1">
          <mxGeometry y="86.92307692307692" width="230" height="29" as="geometry" />
        </mxCell>
        <mxCell id="N_VocerRNXMUjOHOn4VM-411" value="- password: String" style="text;strokeColor=none;fillColor=none;align=left;verticalAlign=top;spacingLeft=4;spacingRight=4;overflow=hidden;rotatable=0;points=[[0,0.5],[1,0.5]];portConstraint=eastwest;" parent="N_VocerRNXMUjOHOn4VM-407" vertex="1">
          <mxGeometry y="115.92307692307692" width="230" height="29" as="geometry" />
        </mxCell>
        <mxCell id="N_VocerRNXMUjOHOn4VM-412" value="- role: String" style="text;strokeColor=none;fillColor=none;align=left;verticalAlign=top;spacingLeft=4;spacingRight=4;overflow=hidden;rotatable=0;points=[[0,0.5],[1,0.5]];portConstraint=eastwest;" parent="N_VocerRNXMUjOHOn4VM-407" vertex="1">
          <mxGeometry y="144.9230769230769" width="230" height="29" as="geometry" />
        </mxCell>
        <mxCell id="N_VocerRNXMUjOHOn4VM-413" style="line;strokeWidth=1;fillColor=none;align=left;verticalAlign=middle;spacingTop=-1;spacingLeft=3;spacingRight=3;rotatable=0;labelPosition=right;points=[];portConstraint=eastwest;strokeColor=inherit;" parent="N_VocerRNXMUjOHOn4VM-407" vertex="1">
          <mxGeometry y="173.9230769230769" width="230" height="8" as="geometry" />
        </mxCell>
        <mxCell id="N_VocerRNXMUjOHOn4VM-414" value="+ register()" style="text;strokeColor=none;fillColor=none;align=left;verticalAlign=top;spacingLeft=4;spacingRight=4;overflow=hidden;rotatable=0;points=[[0,0.5],[1,0.5]];portConstraint=eastwest;" parent="N_VocerRNXMUjOHOn4VM-407" vertex="1">
          <mxGeometry y="181.9230769230769" width="230" height="29" as="geometry" />
        </mxCell>
        <mxCell id="N_VocerRNXMUjOHOn4VM-415" value="+ authenticate()" style="text;strokeColor=none;fillColor=none;align=left;verticalAlign=top;spacingLeft=4;spacingRight=4;overflow=hidden;rotatable=0;points=[[0,0.5],[1,0.5]];portConstraint=eastwest;" parent="N_VocerRNXMUjOHOn4VM-407" vertex="1">
          <mxGeometry y="210.9230769230769" width="230" height="29" as="geometry" />
        </mxCell>
        <mxCell id="N_VocerRNXMUjOHOn4VM-416" value="+ updateUser()" style="text;strokeColor=none;fillColor=none;align=left;verticalAlign=top;spacingLeft=4;spacingRight=4;overflow=hidden;rotatable=0;points=[[0,0.5],[1,0.5]];portConstraint=eastwest;" parent="N_VocerRNXMUjOHOn4VM-407" vertex="1">
          <mxGeometry y="239.9230769230769" width="230" height="29" as="geometry" />
        </mxCell>
        <mxCell id="N_VocerRNXMUjOHOn4VM-417" value="+ deactivateAccount()" style="text;strokeColor=none;fillColor=none;align=left;verticalAlign=top;spacingLeft=4;spacingRight=4;overflow=hidden;rotatable=0;points=[[0,0.5],[1,0.5]];portConstraint=eastwest;" parent="N_VocerRNXMUjOHOn4VM-407" vertex="1">
          <mxGeometry y="268.9230769230769" width="230" height="29" as="geometry" />
        </mxCell>
        <mxCell id="N_VocerRNXMUjOHOn4VM-418" value="+ deleteUser()" style="text;strokeColor=none;fillColor=none;align=left;verticalAlign=top;spacingLeft=4;spacingRight=4;overflow=hidden;rotatable=0;points=[[0,0.5],[1,0.5]];portConstraint=eastwest;" parent="N_VocerRNXMUjOHOn4VM-407" vertex="1">
          <mxGeometry y="297.9230769230769" width="230" height="29" as="geometry" />
        </mxCell>
        <mxCell id="N_VocerRNXMUjOHOn4VM-419" value="+ getUserAndTransaction()" style="text;strokeColor=none;fillColor=none;align=left;verticalAlign=top;spacingLeft=4;spacingRight=4;overflow=hidden;rotatable=0;points=[[0,0.5],[1,0.5]];portConstraint=eastwest;" parent="N_VocerRNXMUjOHOn4VM-407" vertex="1">
          <mxGeometry y="326.9230769230769" width="230" height="29" as="geometry" />
        </mxCell>
        <mxCell id="N_VocerRNXMUjOHOn4VM-420" value="+ getCurrentUser()" style="text;strokeColor=none;fillColor=none;align=left;verticalAlign=top;spacingLeft=4;spacingRight=4;overflow=hidden;rotatable=0;points=[[0,0.5],[1,0.5]];portConstraint=eastwest;" parent="N_VocerRNXMUjOHOn4VM-407" vertex="1">
          <mxGeometry y="355.9230769230769" width="230" height="29" as="geometry" />
        </mxCell>
        <mxCell id="N_VocerRNXMUjOHOn4VM-421" value="Supplier" style="swimlane;fontStyle=1;align=center;verticalAlign=top;childLayout=stackLayout;horizontal=1;startSize=29.818181818181817;horizontalStack=0;resizeParent=1;resizeParentMax=0;resizeLast=0;collapsible=0;marginBottom=0;" parent="1" vertex="1">
          <mxGeometry x="398" y="34" width="222" height="307.8181818181818" as="geometry" />
        </mxCell>
        <mxCell id="N_VocerRNXMUjOHOn4VM-422" value="- id: Long" style="text;strokeColor=none;fillColor=none;align=left;verticalAlign=top;spacingLeft=4;spacingRight=4;overflow=hidden;rotatable=0;points=[[0,0.5],[1,0.5]];portConstraint=eastwest;" parent="N_VocerRNXMUjOHOn4VM-421" vertex="1">
          <mxGeometry y="29.818181818181817" width="222" height="30" as="geometry" />
        </mxCell>
        <mxCell id="N_VocerRNXMUjOHOn4VM-423" value="- name: String" style="text;strokeColor=none;fillColor=none;align=left;verticalAlign=top;spacingLeft=4;spacingRight=4;overflow=hidden;rotatable=0;points=[[0,0.5],[1,0.5]];portConstraint=eastwest;" parent="N_VocerRNXMUjOHOn4VM-421" vertex="1">
          <mxGeometry y="59.81818181818181" width="222" height="30" as="geometry" />
        </mxCell>
        <mxCell id="N_VocerRNXMUjOHOn4VM-424" value="- contact: String" style="text;strokeColor=none;fillColor=none;align=left;verticalAlign=top;spacingLeft=4;spacingRight=4;overflow=hidden;rotatable=0;points=[[0,0.5],[1,0.5]];portConstraint=eastwest;" parent="N_VocerRNXMUjOHOn4VM-421" vertex="1">
          <mxGeometry y="89.81818181818181" width="222" height="30" as="geometry" />
        </mxCell>
        <mxCell id="N_VocerRNXMUjOHOn4VM-425" value="- address: String" style="text;strokeColor=none;fillColor=none;align=left;verticalAlign=top;spacingLeft=4;spacingRight=4;overflow=hidden;rotatable=0;points=[[0,0.5],[1,0.5]];portConstraint=eastwest;" parent="N_VocerRNXMUjOHOn4VM-421" vertex="1">
          <mxGeometry y="119.81818181818181" width="222" height="30" as="geometry" />
        </mxCell>
        <mxCell id="N_VocerRNXMUjOHOn4VM-427" style="line;strokeWidth=1;fillColor=none;align=left;verticalAlign=middle;spacingTop=-1;spacingLeft=3;spacingRight=3;rotatable=0;labelPosition=right;points=[];portConstraint=eastwest;strokeColor=inherit;" parent="N_VocerRNXMUjOHOn4VM-421" vertex="1">
          <mxGeometry y="149.8181818181818" width="222" height="8" as="geometry" />
        </mxCell>
        <mxCell id="N_VocerRNXMUjOHOn4VM-428" value="+ createSupplier()" style="text;strokeColor=none;fillColor=none;align=left;verticalAlign=top;spacingLeft=4;spacingRight=4;overflow=hidden;rotatable=0;points=[[0,0.5],[1,0.5]];portConstraint=eastwest;" parent="N_VocerRNXMUjOHOn4VM-421" vertex="1">
          <mxGeometry y="157.8181818181818" width="222" height="30" as="geometry" />
        </mxCell>
        <mxCell id="N_VocerRNXMUjOHOn4VM-429" value="+ getAllSuppliers()" style="text;strokeColor=none;fillColor=none;align=left;verticalAlign=top;spacingLeft=4;spacingRight=4;overflow=hidden;rotatable=0;points=[[0,0.5],[1,0.5]];portConstraint=eastwest;" parent="N_VocerRNXMUjOHOn4VM-421" vertex="1">
          <mxGeometry y="187.8181818181818" width="222" height="30" as="geometry" />
        </mxCell>
        <mxCell id="N_VocerRNXMUjOHOn4VM-430" value="+ getSupplierById()" style="text;strokeColor=none;fillColor=none;align=left;verticalAlign=top;spacingLeft=4;spacingRight=4;overflow=hidden;rotatable=0;points=[[0,0.5],[1,0.5]];portConstraint=eastwest;" parent="N_VocerRNXMUjOHOn4VM-421" vertex="1">
          <mxGeometry y="217.8181818181818" width="222" height="30" as="geometry" />
        </mxCell>
        <mxCell id="N_VocerRNXMUjOHOn4VM-431" value="+ updateSupplier()" style="text;strokeColor=none;fillColor=none;align=left;verticalAlign=top;spacingLeft=4;spacingRight=4;overflow=hidden;rotatable=0;points=[[0,0.5],[1,0.5]];portConstraint=eastwest;" parent="N_VocerRNXMUjOHOn4VM-421" vertex="1">
          <mxGeometry y="247.8181818181818" width="222" height="30" as="geometry" />
        </mxCell>
        <mxCell id="N_VocerRNXMUjOHOn4VM-432" value="+ deleteSupplier()" style="text;strokeColor=none;fillColor=none;align=left;verticalAlign=top;spacingLeft=4;spacingRight=4;overflow=hidden;rotatable=0;points=[[0,0.5],[1,0.5]];portConstraint=eastwest;" parent="N_VocerRNXMUjOHOn4VM-421" vertex="1">
          <mxGeometry y="277.8181818181818" width="222" height="30" as="geometry" />
        </mxCell>
        <mxCell id="N_VocerRNXMUjOHOn4VM-433" value="Product" style="swimlane;fontStyle=1;align=center;verticalAlign=top;childLayout=stackLayout;horizontal=1;startSize=30.4;horizontalStack=0;resizeParent=1;resizeParentMax=0;resizeLast=0;collapsible=0;marginBottom=0;" parent="1" vertex="1">
          <mxGeometry x="580" y="460" width="187" height="308.4" as="geometry" />
        </mxCell>
        <mxCell id="N_VocerRNXMUjOHOn4VM-434" value="- id: Long" style="text;strokeColor=none;fillColor=none;align=left;verticalAlign=top;spacingLeft=4;spacingRight=4;overflow=hidden;rotatable=0;points=[[0,0.5],[1,0.5]];portConstraint=eastwest;" parent="N_VocerRNXMUjOHOn4VM-433" vertex="1">
          <mxGeometry y="30.4" width="187" height="30" as="geometry" />
        </mxCell>
        <mxCell id="N_VocerRNXMUjOHOn4VM-435" value="- name: String" style="text;strokeColor=none;fillColor=none;align=left;verticalAlign=top;spacingLeft=4;spacingRight=4;overflow=hidden;rotatable=0;points=[[0,0.5],[1,0.5]];portConstraint=eastwest;" parent="N_VocerRNXMUjOHOn4VM-433" vertex="1">
          <mxGeometry y="60.4" width="187" height="30" as="geometry" />
        </mxCell>
        <mxCell id="N_VocerRNXMUjOHOn4VM-436" value="- image: Blob" style="text;strokeColor=none;fillColor=none;align=left;verticalAlign=top;spacingLeft=4;spacingRight=4;overflow=hidden;rotatable=0;points=[[0,0.5],[1,0.5]];portConstraint=eastwest;" parent="N_VocerRNXMUjOHOn4VM-433" vertex="1">
          <mxGeometry y="90.4" width="187" height="30" as="geometry" />
        </mxCell>
        <mxCell id="N_VocerRNXMUjOHOn4VM-437" value="- stockLevel: int" style="text;strokeColor=none;fillColor=none;align=left;verticalAlign=top;spacingLeft=4;spacingRight=4;overflow=hidden;rotatable=0;points=[[0,0.5],[1,0.5]];portConstraint=eastwest;" parent="N_VocerRNXMUjOHOn4VM-433" vertex="1">
          <mxGeometry y="120.4" width="187" height="30" as="geometry" />
        </mxCell>
        <mxCell id="N_VocerRNXMUjOHOn4VM-438" style="line;strokeWidth=1;fillColor=none;align=left;verticalAlign=middle;spacingTop=-1;spacingLeft=3;spacingRight=3;rotatable=0;labelPosition=right;points=[];portConstraint=eastwest;strokeColor=inherit;" parent="N_VocerRNXMUjOHOn4VM-433" vertex="1">
          <mxGeometry y="150.4" width="187" height="8" as="geometry" />
        </mxCell>
        <mxCell id="N_VocerRNXMUjOHOn4VM-439" value="+ saveProduct()" style="text;strokeColor=none;fillColor=none;align=left;verticalAlign=top;spacingLeft=4;spacingRight=4;overflow=hidden;rotatable=0;points=[[0,0.5],[1,0.5]];portConstraint=eastwest;" parent="N_VocerRNXMUjOHOn4VM-433" vertex="1">
          <mxGeometry y="158.4" width="187" height="30" as="geometry" />
        </mxCell>
        <mxCell id="N_VocerRNXMUjOHOn4VM-440" value="+ updateProduct()" style="text;strokeColor=none;fillColor=none;align=left;verticalAlign=top;spacingLeft=4;spacingRight=4;overflow=hidden;rotatable=0;points=[[0,0.5],[1,0.5]];portConstraint=eastwest;" parent="N_VocerRNXMUjOHOn4VM-433" vertex="1">
          <mxGeometry y="188.4" width="187" height="30" as="geometry" />
        </mxCell>
        <mxCell id="N_VocerRNXMUjOHOn4VM-441" value="+ getAllProducts()" style="text;strokeColor=none;fillColor=none;align=left;verticalAlign=top;spacingLeft=4;spacingRight=4;overflow=hidden;rotatable=0;points=[[0,0.5],[1,0.5]];portConstraint=eastwest;" parent="N_VocerRNXMUjOHOn4VM-433" vertex="1">
          <mxGeometry y="218.4" width="187" height="30" as="geometry" />
        </mxCell>
        <mxCell id="N_VocerRNXMUjOHOn4VM-442" value="+ getProductById()" style="text;strokeColor=none;fillColor=none;align=left;verticalAlign=top;spacingLeft=4;spacingRight=4;overflow=hidden;rotatable=0;points=[[0,0.5],[1,0.5]];portConstraint=eastwest;" parent="N_VocerRNXMUjOHOn4VM-433" vertex="1">
          <mxGeometry y="248.4" width="187" height="30" as="geometry" />
        </mxCell>
        <mxCell id="N_VocerRNXMUjOHOn4VM-443" value="+ deleteProduct()" style="text;strokeColor=none;fillColor=none;align=left;verticalAlign=top;spacingLeft=4;spacingRight=4;overflow=hidden;rotatable=0;points=[[0,0.5],[1,0.5]];portConstraint=eastwest;" parent="N_VocerRNXMUjOHOn4VM-433" vertex="1">
          <mxGeometry y="278.4" width="187" height="30" as="geometry" />
        </mxCell>
        <mxCell id="N_VocerRNXMUjOHOn4VM-444" value="Category" style="swimlane;fontStyle=1;align=center;verticalAlign=top;childLayout=stackLayout;horizontal=1;startSize=32;horizontalStack=0;resizeParent=1;resizeParentMax=0;resizeLast=0;collapsible=0;marginBottom=0;" parent="1" vertex="1">
          <mxGeometry x="567" y="890" width="200" height="264" as="geometry" />
        </mxCell>
        <mxCell id="N_VocerRNXMUjOHOn4VM-445" value="- id: Long" style="text;strokeColor=none;fillColor=none;align=left;verticalAlign=top;spacingLeft=4;spacingRight=4;overflow=hidden;rotatable=0;points=[[0,0.5],[1,0.5]];portConstraint=eastwest;" parent="N_VocerRNXMUjOHOn4VM-444" vertex="1">
          <mxGeometry y="32" width="200" height="32" as="geometry" />
        </mxCell>
        <mxCell id="N_VocerRNXMUjOHOn4VM-446" value="- name: String" style="text;strokeColor=none;fillColor=none;align=left;verticalAlign=top;spacingLeft=4;spacingRight=4;overflow=hidden;rotatable=0;points=[[0,0.5],[1,0.5]];portConstraint=eastwest;" parent="N_VocerRNXMUjOHOn4VM-444" vertex="1">
          <mxGeometry y="64" width="200" height="32" as="geometry" />
        </mxCell>
        <mxCell id="N_VocerRNXMUjOHOn4VM-447" style="line;strokeWidth=1;fillColor=none;align=left;verticalAlign=middle;spacingTop=-1;spacingLeft=3;spacingRight=3;rotatable=0;labelPosition=right;points=[];portConstraint=eastwest;strokeColor=inherit;" parent="N_VocerRNXMUjOHOn4VM-444" vertex="1">
          <mxGeometry y="96" width="200" height="8" as="geometry" />
        </mxCell>
        <mxCell id="N_VocerRNXMUjOHOn4VM-448" value="+ createCategory()" style="text;strokeColor=none;fillColor=none;align=left;verticalAlign=top;spacingLeft=4;spacingRight=4;overflow=hidden;rotatable=0;points=[[0,0.5],[1,0.5]];portConstraint=eastwest;" parent="N_VocerRNXMUjOHOn4VM-444" vertex="1">
          <mxGeometry y="104" width="200" height="32" as="geometry" />
        </mxCell>
        <mxCell id="N_VocerRNXMUjOHOn4VM-449" value="+ getAllCategories()" style="text;strokeColor=none;fillColor=none;align=left;verticalAlign=top;spacingLeft=4;spacingRight=4;overflow=hidden;rotatable=0;points=[[0,0.5],[1,0.5]];portConstraint=eastwest;" parent="N_VocerRNXMUjOHOn4VM-444" vertex="1">
          <mxGeometry y="136" width="200" height="32" as="geometry" />
        </mxCell>
        <mxCell id="N_VocerRNXMUjOHOn4VM-450" value="+ getCategoryById()" style="text;strokeColor=none;fillColor=none;align=left;verticalAlign=top;spacingLeft=4;spacingRight=4;overflow=hidden;rotatable=0;points=[[0,0.5],[1,0.5]];portConstraint=eastwest;" parent="N_VocerRNXMUjOHOn4VM-444" vertex="1">
          <mxGeometry y="168" width="200" height="32" as="geometry" />
        </mxCell>
        <mxCell id="N_VocerRNXMUjOHOn4VM-451" value="+ updateCategory()" style="text;strokeColor=none;fillColor=none;align=left;verticalAlign=top;spacingLeft=4;spacingRight=4;overflow=hidden;rotatable=0;points=[[0,0.5],[1,0.5]];portConstraint=eastwest;" parent="N_VocerRNXMUjOHOn4VM-444" vertex="1">
          <mxGeometry y="200" width="200" height="32" as="geometry" />
        </mxCell>
        <mxCell id="N_VocerRNXMUjOHOn4VM-452" value="+ deleteCategory()" style="text;strokeColor=none;fillColor=none;align=left;verticalAlign=top;spacingLeft=4;spacingRight=4;overflow=hidden;rotatable=0;points=[[0,0.5],[1,0.5]];portConstraint=eastwest;" parent="N_VocerRNXMUjOHOn4VM-444" vertex="1">
          <mxGeometry y="232" width="200" height="32" as="geometry" />
        </mxCell>
        <mxCell id="N_VocerRNXMUjOHOn4VM-453" value="Transaction" style="swimlane;fontStyle=1;align=center;verticalAlign=top;childLayout=stackLayout;horizontal=1;startSize=28;horizontalStack=0;resizeParent=1;resizeParentMax=0;resizeLast=0;collapsible=0;marginBottom=0;" parent="1" vertex="1">
          <mxGeometry x="70" y="460" width="334" height="484" as="geometry" />
        </mxCell>
        <mxCell id="N_VocerRNXMUjOHOn4VM-454" value="- id: Long" style="text;strokeColor=none;fillColor=none;align=left;verticalAlign=top;spacingLeft=4;spacingRight=4;overflow=hidden;rotatable=0;points=[[0,0.5],[1,0.5]];portConstraint=eastwest;" parent="N_VocerRNXMUjOHOn4VM-453" vertex="1">
          <mxGeometry y="28" width="334" height="28" as="geometry" />
        </mxCell>
        <mxCell id="N_VocerRNXMUjOHOn4VM-455" value="- date: Date" style="text;strokeColor=none;fillColor=none;align=left;verticalAlign=top;spacingLeft=4;spacingRight=4;overflow=hidden;rotatable=0;points=[[0,0.5],[1,0.5]];portConstraint=eastwest;" parent="N_VocerRNXMUjOHOn4VM-453" vertex="1">
          <mxGeometry y="56" width="334" height="28" as="geometry" />
        </mxCell>
        <mxCell id="N_VocerRNXMUjOHOn4VM-456" value="- status: String" style="text;strokeColor=none;fillColor=none;align=left;verticalAlign=top;spacingLeft=4;spacingRight=4;overflow=hidden;rotatable=0;points=[[0,0.5],[1,0.5]];portConstraint=eastwest;" parent="N_VocerRNXMUjOHOn4VM-453" vertex="1">
          <mxGeometry y="84" width="334" height="28" as="geometry" />
        </mxCell>
        <mxCell id="N_VocerRNXMUjOHOn4VM-457" value="- type: String" style="text;strokeColor=none;fillColor=none;align=left;verticalAlign=top;spacingLeft=4;spacingRight=4;overflow=hidden;rotatable=0;points=[[0,0.5],[1,0.5]];portConstraint=eastwest;" parent="N_VocerRNXMUjOHOn4VM-453" vertex="1">
          <mxGeometry y="112" width="334" height="28" as="geometry" />
        </mxCell>
        <mxCell id="N_VocerRNXMUjOHOn4VM-501" value="- supplier: Supplier" style="text;strokeColor=none;fillColor=none;align=left;verticalAlign=top;spacingLeft=4;spacingRight=4;overflow=hidden;rotatable=0;points=[[0,0.5],[1,0.5]];portConstraint=eastwest;" parent="N_VocerRNXMUjOHOn4VM-453" vertex="1">
          <mxGeometry y="140" width="334" height="28" as="geometry" />
        </mxCell>
        <mxCell id="N_VocerRNXMUjOHOn4VM-458" value="- quantity: int" style="text;strokeColor=none;fillColor=none;align=left;verticalAlign=top;spacingLeft=4;spacingRight=4;overflow=hidden;rotatable=0;points=[[0,0.5],[1,0.5]];portConstraint=eastwest;" parent="N_VocerRNXMUjOHOn4VM-453" vertex="1">
          <mxGeometry y="168" width="334" height="28" as="geometry" />
        </mxCell>
        <mxCell id="N_VocerRNXMUjOHOn4VM-459" value="- product: Product" style="text;strokeColor=none;fillColor=none;align=left;verticalAlign=top;spacingLeft=4;spacingRight=4;overflow=hidden;rotatable=0;points=[[0,0.5],[1,0.5]];portConstraint=eastwest;" parent="N_VocerRNXMUjOHOn4VM-453" vertex="1">
          <mxGeometry y="196" width="334" height="28" as="geometry" />
        </mxCell>
        <mxCell id="N_VocerRNXMUjOHOn4VM-460" value="- user: User" style="text;strokeColor=none;fillColor=none;align=left;verticalAlign=top;spacingLeft=4;spacingRight=4;overflow=hidden;rotatable=0;points=[[0,0.5],[1,0.5]];portConstraint=eastwest;" parent="N_VocerRNXMUjOHOn4VM-453" vertex="1">
          <mxGeometry y="224" width="334" height="28" as="geometry" />
        </mxCell>
        <mxCell id="N_VocerRNXMUjOHOn4VM-461" style="line;strokeWidth=1;fillColor=none;align=left;verticalAlign=middle;spacingTop=-1;spacingLeft=3;spacingRight=3;rotatable=0;labelPosition=right;points=[];portConstraint=eastwest;strokeColor=inherit;" parent="N_VocerRNXMUjOHOn4VM-453" vertex="1">
          <mxGeometry y="252" width="334" height="8" as="geometry" />
        </mxCell>
        <mxCell id="N_VocerRNXMUjOHOn4VM-462" value="+ createPurchaseOrder()" style="text;strokeColor=none;fillColor=none;align=left;verticalAlign=top;spacingLeft=4;spacingRight=4;overflow=hidden;rotatable=0;points=[[0,0.5],[1,0.5]];portConstraint=eastwest;" parent="N_VocerRNXMUjOHOn4VM-453" vertex="1">
          <mxGeometry y="260" width="334" height="28" as="geometry" />
        </mxCell>
        <mxCell id="N_VocerRNXMUjOHOn4VM-463" value="+ sell()" style="text;strokeColor=none;fillColor=none;align=left;verticalAlign=top;spacingLeft=4;spacingRight=4;overflow=hidden;rotatable=0;points=[[0,0.5],[1,0.5]];portConstraint=eastwest;" parent="N_VocerRNXMUjOHOn4VM-453" vertex="1">
          <mxGeometry y="288" width="334" height="28" as="geometry" />
        </mxCell>
        <mxCell id="N_VocerRNXMUjOHOn4VM-464" value="+ returnToSupplier()" style="text;strokeColor=none;fillColor=none;align=left;verticalAlign=top;spacingLeft=4;spacingRight=4;overflow=hidden;rotatable=0;points=[[0,0.5],[1,0.5]];portConstraint=eastwest;" parent="N_VocerRNXMUjOHOn4VM-453" vertex="1">
          <mxGeometry y="316" width="334" height="28" as="geometry" />
        </mxCell>
        <mxCell id="N_VocerRNXMUjOHOn4VM-465" value="+ restockInventory()" style="text;strokeColor=none;fillColor=none;align=left;verticalAlign=top;spacingLeft=4;spacingRight=4;overflow=hidden;rotatable=0;points=[[0,0.5],[1,0.5]];portConstraint=eastwest;" parent="N_VocerRNXMUjOHOn4VM-453" vertex="1">
          <mxGeometry y="344" width="334" height="28" as="geometry" />
        </mxCell>
        <mxCell id="N_VocerRNXMUjOHOn4VM-466" value="+ updateTransactionStatus()" style="text;strokeColor=none;fillColor=none;align=left;verticalAlign=top;spacingLeft=4;spacingRight=4;overflow=hidden;rotatable=0;points=[[0,0.5],[1,0.5]];portConstraint=eastwest;" parent="N_VocerRNXMUjOHOn4VM-453" vertex="1">
          <mxGeometry y="372" width="334" height="28" as="geometry" />
        </mxCell>
        <mxCell id="N_VocerRNXMUjOHOn4VM-467" value="+ getAllTransactions()" style="text;strokeColor=none;fillColor=none;align=left;verticalAlign=top;spacingLeft=4;spacingRight=4;overflow=hidden;rotatable=0;points=[[0,0.5],[1,0.5]];portConstraint=eastwest;" parent="N_VocerRNXMUjOHOn4VM-453" vertex="1">
          <mxGeometry y="400" width="334" height="28" as="geometry" />
        </mxCell>
        <mxCell id="N_VocerRNXMUjOHOn4VM-468" value="+ getTransactionById()" style="text;strokeColor=none;fillColor=none;align=left;verticalAlign=top;spacingLeft=4;spacingRight=4;overflow=hidden;rotatable=0;points=[[0,0.5],[1,0.5]];portConstraint=eastwest;" parent="N_VocerRNXMUjOHOn4VM-453" vertex="1">
          <mxGeometry y="428" width="334" height="28" as="geometry" />
        </mxCell>
        <mxCell id="N_VocerRNXMUjOHOn4VM-469" value="+ getAllTransactionByMonthAndYear()" style="text;strokeColor=none;fillColor=none;align=left;verticalAlign=top;spacingLeft=4;spacingRight=4;overflow=hidden;rotatable=0;points=[[0,0.5],[1,0.5]];portConstraint=eastwest;" parent="N_VocerRNXMUjOHOn4VM-453" vertex="1">
          <mxGeometry y="456" width="334" height="28" as="geometry" />
        </mxCell>
        <mxCell id="N_VocerRNXMUjOHOn4VM-478" value="makes" style="startArrow=none;endArrow=open;endSize=12;rounded=0;entryX=0.09;entryY=0.002;entryDx=0;entryDy=0;edgeStyle=orthogonalEdgeStyle;entryPerimeter=0;" parent="1" target="N_VocerRNXMUjOHOn4VM-453" edge="1">
          <mxGeometry relative="1" as="geometry">
            <Array as="points">
              <mxPoint x="70" y="20" />
              <mxPoint x="40" y="20" />
              <mxPoint x="40" y="427" />
              <mxPoint x="100" y="427" />
            </Array>
            <mxPoint x="70" y="20" as="sourcePoint" />
            <mxPoint x="174" y="465" as="targetPoint" />
          </mxGeometry>
        </mxCell>
        <mxCell id="N_VocerRNXMUjOHOn4VM-479" value="1" style="edgeLabel;resizable=0;labelBackgroundColor=none;fontSize=12;align=right;verticalAlign=top;" parent="N_VocerRNXMUjOHOn4VM-478" vertex="1">
          <mxGeometry x="-1" relative="1" as="geometry" />
        </mxCell>
        <mxCell id="N_VocerRNXMUjOHOn4VM-480" value="0..*" style="edgeLabel;resizable=0;labelBackgroundColor=none;fontSize=12;align=left;verticalAlign=bottom;" parent="N_VocerRNXMUjOHOn4VM-478" vertex="1">
          <mxGeometry x="1" relative="1" as="geometry">
            <mxPoint x="10" as="offset" />
          </mxGeometry>
        </mxCell>
        <mxCell id="N_VocerRNXMUjOHOn4VM-481" value="involves" style="curved=1;startArrow=none;endArrow=open;endSize=12;exitX=1;exitY=0.764;entryX=0;entryY=0.5;rounded=0;exitDx=0;exitDy=0;entryDx=0;entryDy=0;exitPerimeter=0;" parent="1" source="N_VocerRNXMUjOHOn4VM-456" target="N_VocerRNXMUjOHOn4VM-436" edge="1">
          <mxGeometry relative="1" as="geometry">
            <Array as="points" />
          </mxGeometry>
        </mxCell>
        <mxCell id="N_VocerRNXMUjOHOn4VM-482" value="1" style="edgeLabel;resizable=0;labelBackgroundColor=none;fontSize=12;align=right;verticalAlign=top;" parent="N_VocerRNXMUjOHOn4VM-481" vertex="1">
          <mxGeometry x="-1" relative="1" as="geometry">
            <mxPoint x="16" as="offset" />
          </mxGeometry>
        </mxCell>
        <mxCell id="N_VocerRNXMUjOHOn4VM-483" value="1" style="edgeLabel;resizable=0;labelBackgroundColor=none;fontSize=12;align=left;verticalAlign=bottom;" parent="N_VocerRNXMUjOHOn4VM-481" vertex="1">
          <mxGeometry x="1" relative="1" as="geometry">
            <mxPoint x="-30" y="20" as="offset" />
          </mxGeometry>
        </mxCell>
        <mxCell id="N_VocerRNXMUjOHOn4VM-484" value="part of" style="startArrow=none;endArrow=open;rounded=0;exitX=-0.005;exitY=0.048;exitDx=0;exitDy=0;exitPerimeter=0;entryX=0.997;entryY=0.031;entryDx=0;entryDy=0;entryPerimeter=0;" parent="1" source="N_VocerRNXMUjOHOn4VM-433" target="N_VocerRNXMUjOHOn4VM-453" edge="1">
          <mxGeometry relative="1" as="geometry">
            <mxPoint x="580" y="770" as="sourcePoint" />
            <mxPoint x="410" y="475" as="targetPoint" />
          </mxGeometry>
        </mxCell>
        <mxCell id="N_VocerRNXMUjOHOn4VM-485" value="1" style="edgeLabel;resizable=0;labelBackgroundColor=none;fontSize=12;align=right;verticalAlign=bottom;" parent="N_VocerRNXMUjOHOn4VM-484" vertex="1">
          <mxGeometry x="-1" relative="1" as="geometry">
            <mxPoint x="-10" y="15" as="offset" />
          </mxGeometry>
        </mxCell>
        <mxCell id="N_VocerRNXMUjOHOn4VM-486" value="0..*" style="edgeLabel;resizable=0;labelBackgroundColor=none;fontSize=12;align=left;verticalAlign=top;" parent="N_VocerRNXMUjOHOn4VM-484" vertex="1">
          <mxGeometry x="1" relative="1" as="geometry">
            <mxPoint x="10" y="-5" as="offset" />
          </mxGeometry>
        </mxCell>
        <mxCell id="N_VocerRNXMUjOHOn4VM-487" value="" style="startArrow=none;endArrow=open;endSize=12;entryX=0.871;entryY=-0.001;rounded=0;entryDx=0;entryDy=0;edgeStyle=orthogonalEdgeStyle;entryPerimeter=0;" parent="1" target="N_VocerRNXMUjOHOn4VM-453" edge="1">
          <mxGeometry relative="1" as="geometry">
            <Array as="points">
              <mxPoint x="360" y="50" />
              <mxPoint x="360" y="459" />
            </Array>
            <mxPoint x="398" y="50" as="sourcePoint" />
          </mxGeometry>
        </mxCell>
        <mxCell id="N_VocerRNXMUjOHOn4VM-488" value="1" style="edgeLabel;resizable=0;labelBackgroundColor=none;fontSize=12;align=right;verticalAlign=top;" parent="N_VocerRNXMUjOHOn4VM-487" vertex="1">
          <mxGeometry x="-1" relative="1" as="geometry">
            <mxPoint x="-14" as="offset" />
          </mxGeometry>
        </mxCell>
        <mxCell id="N_VocerRNXMUjOHOn4VM-489" value="0..*" style="edgeLabel;resizable=0;labelBackgroundColor=none;fontSize=12;align=left;verticalAlign=bottom;" parent="N_VocerRNXMUjOHOn4VM-487" vertex="1">
          <mxGeometry x="1" relative="1" as="geometry">
            <mxPoint x="-24" y="-20" as="offset" />
          </mxGeometry>
        </mxCell>
        <mxCell id="N_VocerRNXMUjOHOn4VM-490" value="belongs to" style="curved=1;startArrow=none;endArrow=open;endSize=12;exitX=0.1;exitY=1;rounded=0;" parent="1" source="N_VocerRNXMUjOHOn4VM-433" edge="1">
          <mxGeometry x="-0.0298" y="5" relative="1" as="geometry">
            <Array as="points" />
            <mxPoint x="600" y="890" as="targetPoint" />
            <mxPoint as="offset" />
          </mxGeometry>
        </mxCell>
        <mxCell id="N_VocerRNXMUjOHOn4VM-491" value="1" style="edgeLabel;resizable=0;labelBackgroundColor=none;fontSize=12;align=right;verticalAlign=top;" parent="N_VocerRNXMUjOHOn4VM-490" vertex="1">
          <mxGeometry x="-1" relative="1" as="geometry">
            <mxPoint x="11" as="offset" />
          </mxGeometry>
        </mxCell>
        <mxCell id="N_VocerRNXMUjOHOn4VM-492" value="1" style="edgeLabel;resizable=0;labelBackgroundColor=none;fontSize=12;align=left;verticalAlign=bottom;" parent="N_VocerRNXMUjOHOn4VM-490" vertex="1">
          <mxGeometry x="1" relative="1" as="geometry">
            <mxPoint y="-20" as="offset" />
          </mxGeometry>
        </mxCell>
        <mxCell id="N_VocerRNXMUjOHOn4VM-493" value="contains" style="curved=1;startArrow=none;endArrow=open;endSize=12;exitX=0.75;exitY=0;entryX=0.75;entryY=1;rounded=0;exitDx=0;exitDy=0;" parent="1" source="N_VocerRNXMUjOHOn4VM-444" target="N_VocerRNXMUjOHOn4VM-433" edge="1">
          <mxGeometry x="0.0407" y="-6" relative="1" as="geometry">
            <Array as="points" />
            <mxPoint as="offset" />
          </mxGeometry>
        </mxCell>
        <mxCell id="N_VocerRNXMUjOHOn4VM-494" value="1" style="edgeLabel;resizable=0;labelBackgroundColor=none;fontSize=12;align=right;verticalAlign=bottom;" parent="N_VocerRNXMUjOHOn4VM-493" vertex="1">
          <mxGeometry x="-1" relative="1" as="geometry">
            <mxPoint x="23" as="offset" />
          </mxGeometry>
        </mxCell>
        <mxCell id="N_VocerRNXMUjOHOn4VM-495" value="0..*" style="edgeLabel;resizable=0;labelBackgroundColor=none;fontSize=12;align=left;verticalAlign=top;" parent="N_VocerRNXMUjOHOn4VM-493" vertex="1">
          <mxGeometry x="1" relative="1" as="geometry">
            <mxPoint x="10" y="12" as="offset" />
          </mxGeometry>
        </mxCell>
        <mxCell id="N_VocerRNXMUjOHOn4VM-504" style="rounded=0;orthogonalLoop=1;jettySize=auto;html=1;entryX=0.5;entryY=0;entryDx=0;entryDy=0;edgeStyle=orthogonalEdgeStyle;" parent="1" target="N_VocerRNXMUjOHOn4VM-433" edge="1">
          <mxGeometry relative="1" as="geometry">
            <mxPoint x="620" y="50" as="sourcePoint" />
            <Array as="points">
              <mxPoint x="674" y="50" />
            </Array>
          </mxGeometry>
        </mxCell>
        <mxCell id="N_VocerRNXMUjOHOn4VM-505" value="0..*" style="edgeLabel;html=1;align=center;verticalAlign=middle;resizable=0;points=[];" parent="N_VocerRNXMUjOHOn4VM-504" vertex="1" connectable="0">
          <mxGeometry x="-0.7174" y="-1" relative="1" as="geometry">
            <mxPoint x="13" y="-16" as="offset" />
          </mxGeometry>
        </mxCell>
        <mxCell id="N_VocerRNXMUjOHOn4VM-506" value="1..*" style="edgeLabel;html=1;align=center;verticalAlign=middle;resizable=0;points=[];" parent="N_VocerRNXMUjOHOn4VM-504" vertex="1" connectable="0">
          <mxGeometry x="0.8308" y="-4" relative="1" as="geometry">
            <mxPoint x="24" as="offset" />
          </mxGeometry>
        </mxCell>
        <mxCell id="N_VocerRNXMUjOHOn4VM-507" value="supplies" style="edgeLabel;html=1;align=center;verticalAlign=middle;resizable=0;points=[];" parent="N_VocerRNXMUjOHOn4VM-504" vertex="1" connectable="0">
          <mxGeometry x="0.2013" y="-2" relative="1" as="geometry">
            <mxPoint as="offset" />
          </mxGeometry>
        </mxCell>
      </root>
    </mxGraphModel>
  </diagram>
</mxfile>
